<svg xmlns="http://www.w3.org/2000/svg" viewBox="0 0 241 35" width="241" height="35">
	<style>
		tspan { white-space:pre }
		.shp0 { fill: #000000 } 
	</style>
	<path id="Background" class="shp0" d="M0 0L241 0L241 35L0 35L0 0Z" />
	<path id="MADE IN BHARAT " fill="#c7c7c7" d="M27.85 25.87C28.06 25.87 28.26 25.68 28.26 25.46L28.26 17.95C28.26 17.71 28.09 17.57 27.85 17.57C27.58 17.57 27.46 17.69 27.46 17.95L27.46 25.46C27.46 25.68 27.63 25.87 27.85 25.87ZM38.38 25.03C38.19 25.03 38.05 25.13 37.98 25.32C37.95 25.44 37.95 25.56 38.02 25.66C38.1 25.78 38.22 25.85 38.38 25.9C38.6 25.9 38.74 25.8 38.79 25.61C38.82 25.49 38.82 25.37 38.77 25.25C38.72 25.15 38.65 25.08 38.53 25.06ZM31.98 16.8C32 16.8 32.07 16.78 32.17 16.75C32.26 16.68 32.34 16.61 32.36 16.49C32.38 16.39 32.38 16.3 32.31 16.2L29.14 10.56C29.07 10.42 28.98 10.34 28.81 10.34C28.78 10.34 28.71 10.37 28.62 10.39C28.52 10.46 28.45 10.54 28.42 10.63C28.4 10.75 28.4 10.85 28.47 10.94L31.62 16.61C31.69 16.73 31.81 16.8 31.98 16.8ZM25.74 25.87C25.98 25.87 26.12 25.7 26.12 25.46L26.12 11.11L31.38 21.19C31.42 21.31 31.54 21.38 31.71 21.38C31.88 21.38 31.98 21.36 32.07 21.19L37.81 10.94C37.86 10.85 37.86 10.75 37.83 10.63C37.81 10.54 37.74 10.46 37.64 10.42C37.62 10.39 37.54 10.37 37.45 10.37C37.3 10.37 37.18 10.44 37.11 10.56L31.74 20.16L26.07 9.31C26.02 9.22 25.98 9.14 25.9 9.12C25.83 9.1 25.74 9.1 25.64 9.1C25.42 9.14 25.33 9.26 25.33 9.48L25.33 25.46C25.33 25.68 25.52 25.87 25.74 25.87ZM40.54 25.87C40.78 25.87 40.93 25.7 40.93 25.46L40.93 9.48C40.93 9.26 40.83 9.14 40.64 9.1C40.42 9.1 40.3 9.1 40.18 9.29L32.48 23.4C32.41 23.5 32.41 23.59 32.43 23.69C32.46 23.81 32.53 23.88 32.62 23.93C32.7 23.98 32.77 24 32.82 24C32.98 24 33.1 23.93 33.18 23.78L40.14 11.04L40.14 25.46C40.14 25.68 40.33 25.87 40.54 25.87ZM38.38 24.53C38.6 24.53 38.79 24.36 38.79 24.14L38.79 17.95C38.79 17.71 38.62 17.57 38.38 17.57C38.12 17.57 38 17.69 38 17.95L38 24.14C38 24.41 38.12 24.53 38.38 24.53ZM46.38 25.82C46.57 25.82 46.71 25.73 46.78 25.54L46.78 25.51C46.81 25.39 46.81 25.3 46.76 25.18C46.71 25.08 46.64 25.01 46.38 24.94C46.18 24.94 46.04 25.03 45.97 25.25C45.94 25.37 45.94 25.49 46.02 25.58C46.09 25.7 46.21 25.78 46.38 25.82ZM46.81 24.5C46.98 24.5 47.12 24.41 47.19 24.24L50.55 14.4C50.58 14.3 50.58 14.21 50.53 14.09C50.48 13.99 50.41 13.92 50.17 13.87C50 13.87 49.88 13.97 49.78 14.14L46.45 23.98C46.38 24.24 46.5 24.41 46.81 24.5ZM55.26 24.46C55.38 24.43 55.45 24.36 55.5 24.26C55.54 24.17 55.54 24.07 55.52 23.98L54.85 21.89C54.78 21.72 54.63 21.62 54.46 21.62L49.4 21.62C49.14 21.62 49.02 21.74 49.02 22.01C49.02 22.22 49.18 22.42 49.4 22.42L54.18 22.42L54.78 24.22C54.82 24.38 54.94 24.48 55.14 24.48ZM57.82 25.75C58.06 25.68 58.14 25.51 58.06 25.25L56.05 19.73C55.98 19.58 55.86 19.51 55.69 19.51L50.07 19.51C49.81 19.51 49.66 19.63 49.66 19.9C49.66 20.11 49.86 20.3 50.07 20.3L55.4 20.3L57.32 25.54C57.39 25.7 57.54 25.78 57.7 25.78ZM44.12 25.78C44.29 25.78 44.43 25.7 44.5 25.54L50.19 10.22L52.86 18.34C52.95 18.58 53.12 18.6 53.36 18.6C53.48 18.58 53.55 18.5 53.6 18.41C53.65 18.31 53.65 18.22 53.62 18.1L50.77 9.38C50.7 9.22 50.55 9.12 50.38 9.12L50.05 9.12C49.88 9.12 49.74 9.22 49.66 9.38L43.76 25.25C43.69 25.51 43.81 25.68 44.12 25.78ZM55.18 18.58C55.3 18.55 55.38 18.48 55.42 18.38C55.47 18.29 55.47 18.19 55.45 18.07L53.02 10.7C52.9 10.46 52.76 10.46 52.52 10.46C52.28 10.54 52.21 10.7 52.28 10.97L54.68 18.34C54.75 18.5 54.9 18.6 55.06 18.6ZM66.82 23.74C67.02 23.74 67.16 23.64 67.23 23.45L67.23 23.42C67.26 23.3 67.26 23.21 67.21 23.09C67.16 22.99 67.09 22.92 66.97 22.87C66.85 22.87 66.75 22.87 66.63 22.9C66.51 22.92 66.44 23.02 66.42 23.16C66.37 23.28 66.37 23.4 66.44 23.5C66.51 23.62 66.63 23.69 66.82 23.74ZM62.6 25.78C62.82 25.78 63.01 25.58 63.01 25.37L63.01 11.9L66.75 11.9C67.28 11.9 67.81 12 68.34 12.19C70.52 13.13 71.41 15.02 71.41 17.35C71.41 19.63 70.42 22.06 68.02 22.7C67.9 22.73 67.83 22.8 67.78 22.9C67.74 22.99 67.74 23.09 67.76 23.21C67.81 23.38 67.98 23.47 68.26 23.47C70.98 22.63 72.2 20.06 72.2 17.35C72.2 16.27 72.01 15.29 71.65 14.4C70.74 12.43 68.96 11.11 66.75 11.11L62.6 11.11C62.38 11.11 62.22 11.3 62.22 11.52L62.22 25.37C62.22 25.58 62.38 25.78 62.6 25.78ZM67.28 9.86C67.78 9.86 68.41 9.98 69.13 10.2C72.25 11.28 73.52 14.4 73.52 17.52C73.52 21.43 71.74 24.96 67.28 24.96L65.1 24.96L65.1 13.34C65.1 13.08 64.98 12.94 64.71 12.94C64.45 12.94 64.3 13.08 64.3 13.34L64.3 25.37C64.3 25.58 64.5 25.75 64.71 25.75L67.28 25.75C71.98 25.75 74.31 22.01 74.31 17.52C74.31 16.01 74.05 14.64 73.54 13.44C72.49 10.94 70.04 9.07 67.28 9.07L64.69 9.07C64.47 9.07 64.28 9.26 64.28 9.48C64.28 9.7 64.47 9.86 64.69 9.86ZM87.15 25.85C87.39 25.85 87.54 25.68 87.54 25.44C87.54 25.18 87.42 25.06 87.15 25.06L78.82 25.06L78.82 18.86L84.99 18.86C85.21 18.86 85.4 18.7 85.4 18.48C85.4 18.26 85.21 18.07 84.99 18.07L78.44 18.07C78.22 18.07 78.03 18.26 78.03 18.48L78.03 25.44C78.03 25.66 78.22 25.85 78.44 25.85ZM80.48 19.78C80.22 19.78 80.1 19.92 80.1 20.18L80.1 23.42C80.1 23.69 80.22 23.81 80.48 23.81L85.69 23.81C85.9 23.81 86.1 23.64 86.1 23.42C86.1 23.21 85.9 23.02 85.69 23.02L80.89 23.02L80.89 20.18C80.89 19.92 80.74 19.78 80.48 19.78ZM87.03 22.97C86.84 22.97 86.7 23.06 86.62 23.26C86.6 23.38 86.6 23.5 86.67 23.59C86.74 23.71 86.86 23.78 87.03 23.83C87.22 23.83 87.37 23.74 87.44 23.54L87.44 23.52C87.46 23.4 87.46 23.3 87.42 23.18C87.37 23.09 87.3 23.02 87.18 22.99ZM84.99 16.78C85.21 16.78 85.4 16.58 85.4 16.37C85.4 16.13 85.23 15.98 84.99 15.98L78.82 15.98L78.82 9.36C78.82 9.12 78.68 8.95 78.44 8.95C78.22 8.95 78.03 9.14 78.03 9.36L78.03 16.37C78.03 16.58 78.22 16.78 78.44 16.78ZM87.15 9.82C87.37 9.82 87.56 9.62 87.56 9.41C87.56 9.17 87.39 9.02 87.15 9.02L80.41 9.02C80.14 9.02 80.02 9.14 80.02 9.41C80.02 9.62 80.19 9.82 80.41 9.82ZM80.48 11.11C80.26 11.11 80.1 11.3 80.1 11.52L80.1 14.59C80.1 14.81 80.26 15 80.48 15C80.7 15 80.89 14.81 80.89 14.59L80.89 11.9L87.1 11.9C87.32 11.9 87.51 11.74 87.51 11.52C87.51 11.3 87.32 11.11 87.1 11.11ZM96.1 25.42C96.1 25.68 96.22 25.8 96.49 25.8C96.75 25.8 96.9 25.68 96.9 25.42L96.9 19.61C96.9 19.34 96.75 19.22 96.49 19.22C96.22 19.22 96.1 19.34 96.1 19.61ZM98.65 25.82C98.86 25.82 99.01 25.73 99.06 25.54L99.06 25.51C99.1 25.39 99.1 25.3 99.06 25.18C99.01 25.06 98.91 24.98 98.65 24.94C98.46 24.94 98.31 25.03 98.24 25.22L98.24 25.25C98.22 25.37 98.22 25.46 98.26 25.58C98.31 25.7 98.38 25.78 98.5 25.8ZM98.26 24.05C98.26 24.31 98.38 24.43 98.65 24.43C98.86 24.43 99.06 24.26 99.06 24.05L99.06 17.45C99.06 17.23 98.86 17.04 98.65 17.04L96.87 17.04L96.87 9.41C96.87 9.19 96.68 9 96.46 9C96.25 9 96.08 9.19 96.08 9.41L96.08 17.45C96.08 17.71 96.2 17.83 96.46 17.83L98.26 17.83ZM99.06 11.18C99.06 10.97 98.86 10.78 98.65 10.78C98.43 10.78 98.26 10.97 98.26 11.18L98.26 15.31C98.26 15.58 98.38 15.7 98.65 15.7C98.86 15.7 99.06 15.53 99.06 15.31ZM105.44 17.47C105.44 17.21 105.3 17.06 105.03 17.06C104.77 17.06 104.65 17.21 104.65 17.47L104.65 24.26C104.65 24.53 104.77 24.65 105.03 24.65C105.3 24.65 105.44 24.53 105.44 24.26ZM102.92 25.85C103.04 25.85 103.14 25.82 103.21 25.73C103.28 25.66 103.33 25.58 103.33 25.46L103.33 10.82L112.47 25.66C112.54 25.78 112.66 25.85 112.81 25.85C112.86 25.85 112.93 25.82 113.02 25.8C113.24 25.66 113.29 25.46 113.14 25.25L103.26 9.22C103.14 9.05 103.02 9.05 102.82 9.05C102.63 9.1 102.54 9.22 102.54 9.43L102.54 25.46C102.54 25.73 102.66 25.85 102.92 25.85ZM112.47 21.05C112.54 21.17 112.71 21.22 112.93 21.22C113.12 21.17 113.22 21.05 113.22 20.83L113.22 9.43C113.22 9.22 113.02 9.02 112.81 9.02C112.59 9.02 112.42 9.22 112.42 9.43L112.42 19.46L106.71 10.37C106.64 10.25 106.54 10.2 106.38 10.2C106.28 10.2 106.21 10.22 106.16 10.25C105.94 10.39 105.9 10.58 106.04 10.8ZM114.92 10.37C114.7 10.37 114.54 10.56 114.54 10.78L114.54 25.46C114.54 25.73 114.66 25.85 114.92 25.85C115.18 25.85 115.33 25.73 115.33 25.46L115.33 10.78C115.33 10.51 115.18 10.37 114.92 10.37ZM114.92 9.86C115.14 9.86 115.28 9.77 115.33 9.58L115.35 9.55C115.42 9.29 115.33 9.12 114.94 8.98C114.73 8.98 114.58 9.07 114.54 9.29L114.51 9.29C114.49 9.41 114.49 9.5 114.54 9.62C114.58 9.74 114.68 9.82 114.8 9.84Z" />
	<path id="MADE IN BHARAT " fill="#ff4600" d="M124.45 25.78C124.71 25.78 124.83 25.63 124.83 25.37L124.83 9.82L128.48 9.82C131.22 9.82 133.5 10.32 133.5 13.66C133.47 13.78 133.47 13.87 133.45 13.97C133.42 14.09 133.42 14.18 133.5 14.26C133.57 14.33 133.64 14.4 133.76 14.42C133.88 14.42 133.98 14.4 134.07 14.35C134.26 14.21 134.29 13.56 134.29 13.34C134.29 9.89 131.55 9.02 128.48 9.02L124.45 9.02C124.21 9.02 124.04 9.17 124.04 9.41L124.04 25.37C124.04 25.58 124.23 25.78 124.45 25.78ZM129.39 23.64C131.31 23.64 132.75 23.26 132.75 20.93C132.75 19.99 132.56 19.22 131.82 18.62C131.07 18.12 130.28 18 129.39 18L128.43 18C128.17 18 128.05 18.12 128.05 18.38C128.05 18.6 128.22 18.79 128.43 18.79L129.39 18.79C129.78 18.79 130.14 18.82 130.45 18.86C131.58 19.13 131.96 19.78 131.96 20.93C131.96 22.78 130.86 22.85 129.39 22.85L126.97 22.85L126.97 11.86L129.01 11.86C130.26 11.86 131.26 12.19 131.26 13.63C131.26 13.99 131.22 14.28 131.1 14.52C131.05 14.62 131.05 14.71 131.1 14.81C131.12 14.93 131.19 15 131.29 15.05C131.31 15.07 131.38 15.07 131.46 15.07C131.89 15.07 132.01 14.33 132.06 14.02L132.06 13.63C132.06 11.76 130.78 11.06 129.01 11.06L126.56 11.06C126.3 11.06 126.18 11.18 126.18 11.45L126.18 23.23C126.18 23.5 126.3 23.64 126.56 23.64ZM130.02 25.78C133.11 25.78 134.82 23.81 134.82 20.78C134.82 17.64 133.06 15.91 129.92 15.91L128.43 15.91C128.22 15.91 128.02 16.1 128.02 16.32C128.02 16.54 128.22 16.7 128.43 16.7L129.92 16.7C132.66 16.7 134.02 18.05 134.02 20.78C134.02 23.38 132.68 24.98 130.02 24.98L126.58 24.98C126.37 24.98 126.2 25.18 126.2 25.39C126.2 25.66 126.32 25.78 126.58 25.78ZM133.4 15.72C133.59 15.72 133.74 15.62 133.81 15.43C133.83 15.31 133.83 15.19 133.78 15.07C133.74 14.98 133.66 14.9 133.4 14.86C133.18 14.86 133.04 14.95 132.99 15.14C132.94 15.26 132.94 15.38 133.02 15.48C133.09 15.6 133.21 15.67 133.4 15.72ZM141.27 25.32C141.27 25.58 141.42 25.7 141.68 25.7C141.94 25.7 142.06 25.58 142.06 25.32L142.06 20.45C142.06 20.18 141.94 20.06 141.68 20.06C141.42 20.06 141.27 20.18 141.27 20.45ZM139.54 25.63C139.78 25.63 139.93 25.46 139.93 25.22L139.93 19.03L146.77 19.03C147.03 19.03 147.15 18.91 147.15 18.65C147.15 18.41 147.01 18.24 146.77 18.24L139.54 18.24C139.33 18.24 139.14 18.43 139.14 18.65L139.14 25.22C139.14 25.44 139.33 25.63 139.54 25.63ZM148.69 24.74C148.47 24.74 148.33 24.84 148.28 25.06C148.26 25.18 148.26 25.27 148.33 25.39C148.4 25.51 148.52 25.58 148.69 25.63C148.88 25.63 149.02 25.54 149.1 25.34L149.1 25.32C149.12 25.2 149.12 25.1 149.07 24.98C149.02 24.89 148.95 24.82 148.83 24.77ZM150.8 25.63C151.02 25.63 151.21 25.44 151.21 25.22L151.21 11.16C151.21 10.92 151.04 10.78 150.8 10.78C150.54 10.78 150.42 10.9 150.42 11.16L150.42 25.22C150.42 25.44 150.58 25.63 150.8 25.63ZM139.54 16.85C139.81 16.85 139.93 16.73 139.93 16.46L139.93 9.48C139.93 9.22 139.81 9.1 139.54 9.1C139.3 9.1 139.14 9.24 139.14 9.48L139.14 16.46C139.14 16.68 139.33 16.85 139.54 16.85ZM148.28 23.86C148.28 24.07 148.45 24.26 148.66 24.26C148.93 24.26 149.07 24.12 149.07 23.86L149.07 16.46C149.07 16.2 148.93 16.08 148.66 16.08L142.06 16.08L142.06 9.48C142.06 9.22 141.94 9.1 141.68 9.1C141.42 9.1 141.27 9.22 141.27 9.48L141.27 16.46C141.27 16.68 141.46 16.87 141.68 16.87L148.28 16.87ZM148.66 14.98C148.93 14.98 149.07 14.86 149.07 14.59L149.07 9.5C149.07 9.24 148.93 9.1 148.66 9.1C148.45 9.1 148.28 9.29 148.28 9.5L148.28 14.59C148.28 14.86 148.4 14.98 148.66 14.98Z" />
	<path id="MADE IN BHARAT " fill="#ffffff" d="M156.56 25.82C156.75 25.82 156.9 25.73 156.97 25.54L156.97 25.51C156.99 25.39 156.99 25.3 156.94 25.18C156.9 25.08 156.82 25.01 156.56 24.94C156.37 24.94 156.22 25.03 156.15 25.25C156.13 25.37 156.13 25.49 156.2 25.58C156.27 25.7 156.39 25.78 156.56 25.82ZM156.99 24.5C157.16 24.5 157.3 24.41 157.38 24.24L160.74 14.4C160.76 14.3 160.76 14.21 160.71 14.09C160.66 13.99 160.59 13.92 160.35 13.87C160.18 13.87 160.06 13.97 159.97 14.14L156.63 23.98C156.56 24.24 156.68 24.41 156.99 24.5ZM165.44 24.46C165.56 24.43 165.63 24.36 165.68 24.26C165.73 24.17 165.73 24.07 165.7 23.98L165.03 21.89C164.96 21.72 164.82 21.62 164.65 21.62L159.58 21.62C159.32 21.62 159.2 21.74 159.2 22.01C159.2 22.22 159.37 22.42 159.58 22.42L164.36 22.42L164.96 24.22C165.01 24.38 165.13 24.48 165.32 24.48ZM168.01 25.75C168.25 25.68 168.32 25.51 168.25 25.25L166.23 19.73C166.16 19.58 166.04 19.51 165.87 19.51L160.26 19.51C159.99 19.51 159.85 19.63 159.85 19.9C159.85 20.11 160.04 20.3 160.26 20.3L165.58 20.3L167.5 25.54C167.58 25.7 167.72 25.78 167.89 25.78ZM154.3 25.78C154.47 25.78 154.62 25.7 154.69 25.54L160.38 10.22L163.04 18.34C163.14 18.58 163.3 18.6 163.54 18.6C163.66 18.58 163.74 18.5 163.78 18.41C163.83 18.31 163.83 18.22 163.81 18.1L160.95 9.38C160.88 9.22 160.74 9.12 160.57 9.12L160.23 9.12C160.06 9.12 159.92 9.22 159.85 9.38L153.94 25.25C153.87 25.51 153.99 25.68 154.3 25.78ZM165.37 18.58C165.49 18.55 165.56 18.48 165.61 18.38C165.66 18.29 165.66 18.19 165.63 18.07L163.21 10.7C163.09 10.46 162.94 10.46 162.7 10.46C162.46 10.54 162.39 10.7 162.46 10.97L164.86 18.34C164.94 18.5 165.08 18.6 165.25 18.6ZM174.34 20.78C174.1 20.78 173.94 20.93 173.94 21.17L173.94 25.34C173.94 25.56 174.13 25.75 174.34 25.75C174.61 25.75 174.73 25.61 174.73 25.34L174.73 21.17C174.73 20.9 174.61 20.78 174.34 20.78ZM174.58 17.06C174.46 16.94 174.37 16.9 174.25 16.9C174.15 16.9 174.08 16.92 174.03 16.97C173.82 17.11 173.77 17.3 173.91 17.52L178.57 24.43C178.64 24.55 178.76 24.62 178.88 24.62C178.98 24.62 179.05 24.6 179.12 24.55C179.19 24.48 179.26 24.41 179.29 24.29C179.31 24.17 179.29 24.07 179.22 24ZM179.62 24.89C179.43 24.89 179.29 24.98 179.22 25.18L179.22 25.2C179.19 25.32 179.19 25.42 179.26 25.51C179.34 25.63 179.46 25.7 179.62 25.75C179.84 25.75 179.98 25.66 180.03 25.46L180.06 25.46C180.08 25.34 180.08 25.22 180.03 25.1C179.98 25.01 179.89 24.94 179.77 24.91ZM177.01 11.76C177.8 11.76 178.62 11.81 179.29 12.24C179.55 12.43 179.77 12.7 179.94 13.01C180.08 13.34 180.15 13.78 180.15 14.28C180.15 16.27 179 16.87 177.15 16.87L176.41 16.87C176.17 16.87 176 17.02 176 17.26C176 17.47 176.19 17.66 176.41 17.66L177.15 17.66C179.67 17.66 180.94 16.54 180.94 14.28C180.94 12.65 180.3 11.54 178.62 11.11C178.11 11.02 177.58 10.97 177.01 10.97L172.23 10.97C172.02 10.97 171.82 11.16 171.82 11.38L171.82 25.34C171.82 25.61 171.97 25.75 172.23 25.75C172.5 25.75 172.62 25.61 172.62 25.34L172.62 11.76ZM178.47 19.44C181.38 19.06 183.1 17.18 183.1 14.23C183.1 10.7 181.23 9.1 177.78 9.1L174.37 9.1C174.1 9.1 173.98 9.22 173.98 9.48C173.98 9.74 174.1 9.89 174.37 9.89L177.78 9.89C180.78 9.89 182.31 11.16 182.31 14.23C182.31 16.92 180.56 18.67 177.78 18.67C177.61 18.67 177.49 18.74 177.42 18.89C177.34 19.06 177.34 19.18 177.44 19.3L181.71 25.58C181.78 25.7 181.9 25.75 182.05 25.75C182.12 25.75 182.19 25.73 182.26 25.68C182.48 25.54 182.5 25.34 182.36 25.13Z" />
	<path id="MADE IN BHARAT " fill="#00ff00" d="M188.46 25.82C188.65 25.82 188.79 25.73 188.86 25.54L188.86 25.51C188.89 25.39 188.89 25.3 188.84 25.18C188.79 25.08 188.72 25.01 188.46 24.94C188.26 24.94 188.12 25.03 188.05 25.25C188.02 25.37 188.02 25.49 188.1 25.58C188.17 25.7 188.29 25.78 188.46 25.82ZM188.89 24.5C189.06 24.5 189.2 24.41 189.27 24.24L192.63 14.4C192.66 14.3 192.66 14.21 192.61 14.09C192.56 13.99 192.49 13.92 192.25 13.87C192.08 13.87 191.96 13.97 191.86 14.14L188.53 23.98C188.46 24.24 188.58 24.41 188.89 24.5ZM197.34 24.46C197.46 24.43 197.53 24.36 197.58 24.26C197.62 24.17 197.62 24.07 197.6 23.98L196.93 21.89C196.86 21.72 196.71 21.62 196.54 21.62L191.48 21.62C191.22 21.62 191.1 21.74 191.1 22.01C191.1 22.22 191.26 22.42 191.48 22.42L196.26 22.42L196.86 24.22C196.9 24.38 197.02 24.48 197.22 24.48ZM199.9 25.75C200.14 25.68 200.22 25.51 200.14 25.25L198.13 19.73C198.06 19.58 197.94 19.51 197.77 19.51L192.15 19.51C191.89 19.51 191.74 19.63 191.74 19.9C191.74 20.11 191.94 20.3 192.15 20.3L197.48 20.3L199.4 25.54C199.47 25.7 199.62 25.78 199.78 25.78ZM186.2 25.78C186.37 25.78 186.51 25.7 186.58 25.54L192.27 10.22L194.94 18.34C195.03 18.58 195.2 18.6 195.44 18.6C195.56 18.58 195.63 18.5 195.68 18.41C195.73 18.31 195.73 18.22 195.7 18.1L192.85 9.38C192.78 9.22 192.63 9.12 192.46 9.12L192.13 9.12C191.96 9.12 191.82 9.22 191.74 9.38L185.84 25.25C185.77 25.51 185.89 25.68 186.2 25.78ZM197.26 18.58C197.38 18.55 197.46 18.48 197.5 18.38C197.55 18.29 197.55 18.19 197.53 18.07L195.1 10.7C194.98 10.46 194.84 10.46 194.6 10.46C194.36 10.54 194.29 10.7 194.36 10.97L196.76 18.34C196.83 18.5 196.98 18.6 197.14 18.6ZM208.11 19.63C208.11 19.37 207.99 19.22 207.73 19.22C207.46 19.22 207.32 19.37 207.32 19.63L207.32 25.42C207.32 25.63 207.51 25.8 207.73 25.8C207.99 25.8 208.11 25.68 208.11 25.42ZM208.09 9.46C208.09 9.19 207.97 9.05 207.7 9.05L202.93 9.05C202.66 9.05 202.52 9.19 202.52 9.46C202.52 9.72 202.66 9.84 202.93 9.84L207.3 9.84L207.3 17.45C207.3 17.66 207.49 17.83 207.7 17.83L209.48 17.83L209.48 23.57C209.48 23.78 209.67 23.98 209.89 23.98C210.15 23.98 210.27 23.83 210.27 23.57L210.27 17.45C210.27 17.21 210.13 17.04 209.89 17.04L208.09 17.04ZM202.93 11.16C202.71 11.16 202.52 11.35 202.52 11.57C202.52 11.83 202.66 11.95 202.93 11.95L205.86 11.95C206.12 11.95 206.24 11.83 206.24 11.57C206.24 11.33 206.1 11.16 205.86 11.16ZM209.89 9.05C209.62 9.05 209.48 9.19 209.48 9.46C209.48 9.67 209.67 9.84 209.89 9.84L213.01 9.84C213.27 9.84 213.39 9.72 213.39 9.46C213.39 9.19 213.27 9.05 213.01 9.05ZM209.48 15.31C209.48 15.53 209.67 15.7 209.89 15.7C210.15 15.7 210.27 15.58 210.27 15.31L210.27 11.95L214.33 11.95C214.59 11.95 214.74 11.83 214.74 11.57C214.74 11.3 214.59 11.16 214.33 11.16L209.89 11.16C209.67 11.16 209.48 11.35 209.48 11.57ZM214.35 9C214.14 9 213.99 9.1 213.94 9.29L213.92 9.31C213.9 9.43 213.9 9.53 213.97 9.62C214.04 9.74 214.16 9.82 214.33 9.89C214.54 9.89 214.69 9.79 214.74 9.58L214.76 9.58C214.78 9.46 214.78 9.36 214.74 9.24C214.69 9.12 214.59 9.05 214.47 9.02Z" />
</svg>