<svg xmlns="http://www.w3.org/2000/svg" viewBox="0 0 568 119" width="568" height="119">
	<style>
		tspan { white-space:pre }
		.shp0 { fill: #000000 } 
	</style>
	<path id="Shape 1" class="shp0" d="M10 10L561 10L561 107L10 107L10 10Z" />
	<path id="MADE IN BHARAT " fill="#ffffff" d="M43.73 81.19C44.29 81.19 44.8 80.69 44.8 80.12L44.8 60.4C44.8 59.77 44.36 59.39 43.73 59.39C43.03 59.39 42.72 59.71 42.72 60.4L42.72 80.12C42.72 80.69 43.16 81.19 43.73 81.19ZM71.38 78.98C70.88 78.98 70.5 79.24 70.31 79.74C70.25 80.06 70.25 80.37 70.44 80.62C70.63 80.94 70.94 81.13 71.38 81.25C71.95 81.25 72.33 81 72.45 80.5C72.52 80.18 72.52 79.87 72.39 79.55C72.27 79.3 72.08 79.11 71.76 79.05ZM54.56 57.38C54.63 57.38 54.81 57.31 55.07 57.25C55.32 57.06 55.51 56.87 55.57 56.56C55.63 56.3 55.63 56.05 55.44 55.8L47.13 40.99C46.94 40.62 46.69 40.43 46.25 40.43C46.18 40.43 45.99 40.49 45.74 40.55C45.49 40.74 45.3 40.93 45.24 41.18C45.17 41.5 45.17 41.75 45.36 42L53.62 56.87C53.81 57.19 54.12 57.38 54.56 57.38ZM38.18 81.19C38.81 81.19 39.19 80.75 39.19 80.12L39.19 42.44L52.99 68.9C53.11 69.22 53.43 69.41 53.87 69.41C54.31 69.41 54.56 69.34 54.81 68.9L69.87 42C70 41.75 70 41.5 69.93 41.18C69.87 40.93 69.68 40.74 69.43 40.62C69.37 40.55 69.18 40.49 68.93 40.49C68.55 40.49 68.23 40.68 68.04 40.99L53.93 66.19L39.06 37.72C38.94 37.47 38.81 37.28 38.62 37.21C38.43 37.15 38.18 37.15 37.93 37.15C37.36 37.28 37.11 37.59 37.11 38.16L37.11 80.12C37.11 80.69 37.62 81.19 38.18 81.19ZM77.05 81.19C77.68 81.19 78.06 80.75 78.06 80.12L78.06 38.16C78.06 37.59 77.81 37.28 77.31 37.15C76.74 37.15 76.42 37.15 76.11 37.66L55.89 74.7C55.7 74.95 55.7 75.2 55.76 75.46C55.82 75.77 56.01 75.96 56.26 76.09C56.45 76.21 56.64 76.28 56.77 76.28C57.21 76.28 57.52 76.09 57.71 75.71L75.98 42.26L75.98 80.12C75.98 80.69 76.49 81.19 77.05 81.19ZM71.38 77.66C71.95 77.66 72.45 77.22 72.45 76.65L72.45 60.4C72.45 59.77 72.01 59.39 71.38 59.39C70.69 59.39 70.38 59.71 70.38 60.4L70.38 76.65C70.38 77.35 70.69 77.66 71.38 77.66ZM92.36 81.06C92.87 81.06 93.24 80.81 93.43 80.31L93.43 80.24C93.5 79.93 93.5 79.68 93.37 79.36C93.24 79.11 93.06 78.92 92.36 78.73C91.86 78.73 91.48 78.98 91.29 79.55C91.23 79.87 91.23 80.18 91.42 80.43C91.61 80.75 91.92 80.94 92.36 81.06ZM93.5 77.6C93.94 77.6 94.31 77.35 94.5 76.91L103.32 51.08C103.39 50.82 103.39 50.57 103.26 50.26C103.14 50 102.95 49.81 102.32 49.69C101.88 49.69 101.56 49.94 101.31 50.38L92.55 76.21C92.36 76.91 92.68 77.35 93.5 77.6ZM115.67 77.47C115.99 77.41 116.18 77.22 116.3 76.97C116.43 76.72 116.43 76.46 116.37 76.21L114.6 70.73C114.41 70.29 114.03 70.04 113.59 70.04L100.3 70.04C99.61 70.04 99.29 70.35 99.29 71.05C99.29 71.61 99.73 72.12 100.3 72.12L112.84 72.12L114.41 76.84C114.54 77.28 114.85 77.53 115.36 77.53ZM122.41 80.87C123.04 80.69 123.23 80.24 123.04 79.55L117.75 65.06C117.56 64.68 117.25 64.49 116.81 64.49L102.06 64.49C101.37 64.49 100.99 64.81 100.99 65.5C100.99 66.07 101.5 66.57 102.06 66.57L116.05 66.57L121.09 80.31C121.28 80.75 121.66 80.94 122.1 80.94ZM86.44 80.94C86.88 80.94 87.26 80.75 87.45 80.31L102.38 40.11L109.37 61.41C109.62 62.04 110.06 62.1 110.69 62.1C111.01 62.04 111.2 61.85 111.33 61.6C111.45 61.34 111.45 61.09 111.39 60.78L103.89 37.91C103.7 37.47 103.32 37.21 102.88 37.21L102 37.21C101.56 37.21 101.18 37.47 100.99 37.91L85.5 79.55C85.31 80.24 85.62 80.69 86.44 80.94ZM115.48 62.04C115.8 61.97 115.99 61.78 116.11 61.53C116.24 61.28 116.24 61.03 116.18 60.71L109.81 41.37C109.5 40.74 109.12 40.74 108.49 40.74C107.86 40.93 107.67 41.37 107.86 42.07L114.16 61.41C114.35 61.85 114.73 62.1 115.17 62.1ZM146.04 75.58C146.54 75.58 146.92 75.33 147.11 74.83L147.11 74.76C147.17 74.45 147.17 74.2 147.05 73.88C146.92 73.63 146.73 73.44 146.42 73.31C146.1 73.31 145.85 73.31 145.53 73.38C145.22 73.44 145.03 73.69 144.97 74.07C144.84 74.39 144.84 74.7 145.03 74.95C145.22 75.27 145.53 75.46 146.04 75.58ZM134.95 80.94C135.52 80.94 136.02 80.43 136.02 79.87L136.02 44.52L145.85 44.52C147.23 44.52 148.62 44.77 150.01 45.28C155.74 47.74 158.07 52.71 158.07 58.82C158.07 64.81 155.49 71.17 149.19 72.87C148.87 72.94 148.68 73.13 148.56 73.38C148.43 73.63 148.43 73.88 148.5 74.2C148.62 74.64 149.06 74.89 149.82 74.89C156.94 72.68 160.15 65.94 160.15 58.82C160.15 55.99 159.65 53.41 158.7 51.08C156.31 45.91 151.64 42.44 145.85 42.44L134.95 42.44C134.38 42.44 133.94 42.95 133.94 43.52L133.94 79.87C133.94 80.43 134.38 80.94 134.95 80.94ZM147.23 39.17C148.56 39.17 150.2 39.48 152.09 40.05C160.28 42.88 163.62 51.08 163.62 59.27C163.62 69.53 158.95 78.8 147.23 78.8L141.5 78.8L141.5 48.3C141.5 47.61 141.19 47.23 140.49 47.23C139.8 47.23 139.42 47.61 139.42 48.3L139.42 79.87C139.42 80.43 139.93 80.87 140.49 80.87L147.23 80.87C159.58 80.87 165.69 71.05 165.69 59.27C165.69 55.3 165 51.7 163.68 48.55C160.91 42 154.48 37.09 147.23 37.09L140.43 37.09C139.86 37.09 139.36 37.59 139.36 38.16C139.36 38.73 139.86 39.17 140.43 39.17ZM199.4 81.13C200.03 81.13 200.41 80.69 200.41 80.06C200.41 79.36 200.09 79.05 199.4 79.05L177.54 79.05L177.54 62.79L193.73 62.79C194.3 62.79 194.8 62.35 194.8 61.78C194.8 61.22 194.3 60.71 193.73 60.71L176.53 60.71C175.96 60.71 175.46 61.22 175.46 61.78L175.46 80.06C175.46 80.62 175.96 81.13 176.53 81.13ZM181.88 65.19C181.19 65.19 180.88 65.56 180.88 66.26L180.88 74.76C180.88 75.46 181.19 75.77 181.88 75.77L195.56 75.77C196.12 75.77 196.63 75.33 196.63 74.76C196.63 74.2 196.12 73.69 195.56 73.69L182.96 73.69L182.96 66.26C182.96 65.56 182.58 65.19 181.88 65.19ZM199.08 73.57C198.58 73.57 198.2 73.82 198.01 74.32C197.95 74.64 197.95 74.95 198.14 75.2C198.33 75.52 198.64 75.71 199.08 75.83C199.59 75.83 199.97 75.58 200.15 75.08L200.15 75.02C200.22 74.7 200.22 74.45 200.09 74.13C199.97 73.88 199.78 73.69 199.46 73.63ZM193.73 57.31C194.3 57.31 194.8 56.81 194.8 56.24C194.8 55.61 194.36 55.23 193.73 55.23L177.54 55.23L177.54 37.84C177.54 37.21 177.16 36.77 176.53 36.77C175.96 36.77 175.46 37.28 175.46 37.84L175.46 56.24C175.46 56.81 175.96 57.31 176.53 57.31ZM199.4 39.04C199.97 39.04 200.47 38.54 200.47 37.97C200.47 37.34 200.03 36.96 199.4 36.96L181.7 36.96C181 36.96 180.69 37.28 180.69 37.97C180.69 38.54 181.13 39.04 181.7 39.04ZM181.88 42.44C181.32 42.44 180.88 42.95 180.88 43.52L180.88 51.58C180.88 52.15 181.32 52.65 181.88 52.65C182.45 52.65 182.96 52.15 182.96 51.58L182.96 44.52L199.27 44.52C199.84 44.52 200.34 44.08 200.34 43.52C200.34 42.95 199.84 42.44 199.27 42.44ZM222.9 79.99C222.9 80.69 223.21 81 223.91 81C224.6 81 224.98 80.69 224.98 79.99L224.98 64.75C224.98 64.05 224.6 63.74 223.91 63.74C223.21 63.74 222.9 64.05 222.9 64.75ZM229.58 81.06C230.14 81.06 230.52 80.81 230.65 80.31L230.65 80.24C230.77 79.93 230.77 79.68 230.65 79.36C230.52 79.05 230.27 78.86 229.58 78.73C229.07 78.73 228.69 78.98 228.5 79.49L228.5 79.55C228.44 79.87 228.44 80.12 228.57 80.43C228.69 80.75 228.88 80.94 229.2 81ZM228.57 76.4C228.57 77.09 228.88 77.41 229.58 77.41C230.14 77.41 230.65 76.97 230.65 76.4L230.65 59.08C230.65 58.51 230.14 58 229.58 58L224.91 58L224.91 37.97C224.91 37.4 224.41 36.9 223.84 36.9C223.28 36.9 222.83 37.4 222.83 37.97L222.83 59.08C222.83 59.77 223.15 60.08 223.84 60.08L228.57 60.08ZM230.65 42.63C230.65 42.07 230.14 41.56 229.58 41.56C229.01 41.56 228.57 42.07 228.57 42.63L228.57 53.47C228.57 54.16 228.88 54.48 229.58 54.48C230.14 54.48 230.65 54.04 230.65 53.47ZM247.4 59.14C247.4 58.45 247.03 58.07 246.33 58.07C245.64 58.07 245.33 58.45 245.33 59.14L245.33 76.97C245.33 77.66 245.64 77.98 246.33 77.98C247.03 77.98 247.4 77.66 247.4 76.97ZM240.79 81.13C241.1 81.13 241.36 81.06 241.55 80.81C241.73 80.62 241.86 80.43 241.86 80.12L241.86 41.69L265.86 80.62C266.05 80.94 266.37 81.13 266.75 81.13C266.87 81.13 267.06 81.06 267.31 81C267.88 80.62 268.01 80.12 267.63 79.55L241.67 37.47C241.36 37.03 241.04 37.03 240.54 37.03C240.03 37.15 239.78 37.47 239.78 38.03L239.78 80.12C239.78 80.81 240.1 81.13 240.79 81.13ZM265.86 68.53C266.05 68.84 266.49 68.97 267.06 68.97C267.56 68.84 267.82 68.53 267.82 67.96L267.82 38.03C267.82 37.47 267.31 36.96 266.75 36.96C266.18 36.96 265.74 37.47 265.74 38.03L265.74 64.37L250.74 40.49C250.55 40.18 250.3 40.05 249.86 40.05C249.61 40.05 249.42 40.11 249.29 40.18C248.73 40.55 248.6 41.06 248.98 41.63ZM272.29 40.49C271.72 40.49 271.28 40.99 271.28 41.56L271.28 80.12C271.28 80.81 271.6 81.13 272.29 81.13C272.98 81.13 273.36 80.81 273.36 80.12L273.36 41.56C273.36 40.87 272.98 40.49 272.29 40.49ZM272.29 39.17C272.86 39.17 273.23 38.92 273.36 38.41L273.42 38.35C273.61 37.66 273.36 37.21 272.35 36.84C271.79 36.84 271.41 37.09 271.28 37.66L271.22 37.66C271.16 37.97 271.16 38.22 271.28 38.54C271.41 38.85 271.66 39.04 271.97 39.1Z" />
	<path id="MADE IN BHARAT " fill="#000000" d="" />
	<path id="MADE IN BHARAT " fill="#ff4308" d="M297.3 80.94C297.99 80.94 298.31 80.56 298.31 79.87L298.31 39.04L307.88 39.04C315.07 39.04 321.05 40.37 321.05 49.12C320.99 49.44 320.99 49.69 320.93 49.94C320.86 50.26 320.86 50.51 321.05 50.7C321.24 50.89 321.43 51.08 321.75 51.14C322.06 51.14 322.31 51.08 322.56 50.95C323.07 50.57 323.13 48.87 323.13 48.3C323.13 39.23 315.95 36.96 307.88 36.96L297.3 36.96C296.67 36.96 296.23 37.34 296.23 37.97L296.23 79.87C296.23 80.43 296.73 80.94 297.3 80.94ZM310.28 75.33C315.32 75.33 319.1 74.32 319.1 68.21C319.1 65.75 318.6 63.74 316.64 62.16C314.69 60.84 312.61 60.52 310.28 60.52L307.76 60.52C307.07 60.52 306.75 60.84 306.75 61.53C306.75 62.1 307.19 62.6 307.76 62.6L310.28 62.6C311.29 62.6 312.23 62.67 313.05 62.79C316.01 63.49 317.02 65.19 317.02 68.21C317.02 73.06 314.12 73.25 310.28 73.25L303.92 73.25L303.92 44.4L309.27 44.4C312.55 44.4 315.19 45.28 315.19 49.06C315.19 50 315.07 50.76 314.75 51.39C314.63 51.64 314.63 51.89 314.75 52.15C314.81 52.46 315 52.65 315.26 52.78C315.32 52.84 315.51 52.84 315.7 52.84C316.83 52.84 317.15 50.89 317.27 50.07L317.27 49.06C317.27 44.15 313.93 42.32 309.27 42.32L302.85 42.32C302.15 42.32 301.84 42.63 301.84 43.33L301.84 74.26C301.84 74.95 302.15 75.33 302.85 75.33ZM311.92 80.94C320.04 80.94 324.52 75.77 324.52 67.83C324.52 59.58 319.92 55.04 311.67 55.04L307.76 55.04C307.19 55.04 306.69 55.55 306.69 56.11C306.69 56.68 307.19 57.12 307.76 57.12L311.67 57.12C318.85 57.12 322.44 60.65 322.44 67.83C322.44 74.64 318.91 78.86 311.92 78.86L302.91 78.86C302.34 78.86 301.9 79.36 301.9 79.93C301.9 80.62 302.22 80.94 302.91 80.94ZM320.8 54.54C321.3 54.54 321.68 54.29 321.87 53.78C321.93 53.47 321.93 53.15 321.81 52.84C321.68 52.59 321.49 52.4 320.8 52.27C320.23 52.27 319.86 52.52 319.73 53.03C319.6 53.34 319.6 53.66 319.79 53.91C319.98 54.23 320.3 54.41 320.8 54.54ZM341.46 79.74C341.46 80.43 341.84 80.75 342.54 80.75C343.23 80.75 343.54 80.43 343.54 79.74L343.54 66.95C343.54 66.26 343.23 65.94 342.54 65.94C341.84 65.94 341.46 66.26 341.46 66.95ZM336.93 80.56C337.56 80.56 337.94 80.12 337.94 79.49L337.94 63.23L355.89 63.23C356.58 63.23 356.9 62.92 356.9 62.23C356.9 61.6 356.52 61.16 355.89 61.16L336.93 61.16C336.36 61.16 335.86 61.66 335.86 62.23L335.86 79.49C335.86 80.06 336.36 80.56 336.93 80.56ZM360.93 78.23C360.36 78.23 359.99 78.48 359.86 79.05C359.8 79.36 359.8 79.61 359.99 79.93C360.18 80.24 360.49 80.43 360.93 80.56C361.44 80.56 361.81 80.31 362 79.8L362 79.74C362.06 79.42 362.06 79.17 361.94 78.86C361.81 78.61 361.62 78.42 361.31 78.29ZM366.48 80.56C367.04 80.56 367.55 80.06 367.55 79.49L367.55 42.57C367.55 41.94 367.11 41.56 366.48 41.56C365.78 41.56 365.47 41.88 365.47 42.57L365.47 79.49C365.47 80.06 365.91 80.56 366.48 80.56ZM336.93 57.5C337.62 57.5 337.94 57.19 337.94 56.49L337.94 38.16C337.94 37.47 337.62 37.15 336.93 37.15C336.3 37.15 335.86 37.53 335.86 38.16L335.86 56.49C335.86 57.06 336.36 57.5 336.93 57.5ZM359.86 75.9C359.86 76.46 360.3 76.97 360.87 76.97C361.56 76.97 361.94 76.59 361.94 75.9L361.94 56.49C361.94 55.8 361.56 55.48 360.87 55.48L343.54 55.48L343.54 38.16C343.54 37.47 343.23 37.15 342.54 37.15C341.84 37.15 341.46 37.47 341.46 38.16L341.46 56.49C341.46 57.06 341.97 57.56 342.54 57.56L359.86 57.56ZM360.87 52.59C361.56 52.59 361.94 52.27 361.94 51.58L361.94 38.22C361.94 37.53 361.56 37.15 360.87 37.15C360.3 37.15 359.86 37.66 359.86 38.22L359.86 51.58C359.86 52.27 360.18 52.59 360.87 52.59Z" />
	<path id="MADE IN BHARAT " fill="#f3f3f3" d="M381.6 81.06C382.1 81.06 382.48 80.81 382.67 80.31L382.67 80.24C382.73 79.93 382.73 79.68 382.6 79.36C382.48 79.11 382.29 78.92 381.6 78.73C381.09 78.73 380.71 78.98 380.52 79.55C380.46 79.87 380.46 80.18 380.65 80.43C380.84 80.75 381.15 80.94 381.6 81.06ZM382.73 77.6C383.17 77.6 383.55 77.35 383.74 76.91L392.56 51.08C392.62 50.82 392.62 50.57 392.49 50.26C392.37 50 392.18 49.81 391.55 49.69C391.11 49.69 390.79 49.94 390.54 50.38L381.78 76.21C381.6 76.91 381.91 77.35 382.73 77.6ZM404.91 77.47C405.22 77.41 405.41 77.22 405.54 76.97C405.66 76.72 405.66 76.46 405.6 76.21L403.83 70.73C403.65 70.29 403.27 70.04 402.83 70.04L389.53 70.04C388.84 70.04 388.53 70.35 388.53 71.05C388.53 71.61 388.97 72.12 389.53 72.12L402.07 72.12L403.65 76.84C403.77 77.28 404.09 77.53 404.59 77.53ZM411.65 80.87C412.28 80.69 412.47 80.24 412.28 79.55L406.98 65.06C406.8 64.68 406.48 64.49 406.04 64.49L391.3 64.49C390.6 64.49 390.23 64.81 390.23 65.5C390.23 66.07 390.73 66.57 391.3 66.57L405.28 66.57L410.32 80.31C410.51 80.75 410.89 80.94 411.33 80.94ZM375.67 80.94C376.11 80.94 376.49 80.75 376.68 80.31L391.61 40.11L398.61 61.41C398.86 62.04 399.3 62.1 399.93 62.1C400.24 62.04 400.43 61.85 400.56 61.6C400.68 61.34 400.68 61.09 400.62 60.78L393.12 37.91C392.94 37.47 392.56 37.21 392.12 37.21L391.23 37.21C390.79 37.21 390.42 37.47 390.23 37.91L374.73 79.55C374.54 80.24 374.85 80.69 375.67 80.94ZM404.72 62.04C405.03 61.97 405.22 61.78 405.35 61.53C405.47 61.28 405.47 61.03 405.41 60.71L399.05 41.37C398.73 40.74 398.35 40.74 397.72 40.74C397.09 40.93 396.9 41.37 397.09 42.07L403.39 61.41C403.58 61.85 403.96 62.1 404.4 62.1ZM428.28 67.83C427.65 67.83 427.21 68.21 427.21 68.84L427.21 79.8C427.21 80.37 427.71 80.87 428.28 80.87C428.97 80.87 429.29 80.5 429.29 79.8L429.29 68.84C429.29 68.15 428.97 67.83 428.28 67.83ZM428.91 58.07C428.59 57.75 428.34 57.63 428.03 57.63C427.77 57.63 427.58 57.69 427.46 57.82C426.89 58.19 426.77 58.7 427.14 59.27L439.37 77.41C439.56 77.72 439.87 77.91 440.19 77.91C440.44 77.91 440.63 77.85 440.81 77.72C441 77.53 441.19 77.35 441.26 77.03C441.32 76.72 441.26 76.46 441.07 76.28ZM442.14 78.61C441.63 78.61 441.26 78.86 441.07 79.36L441.07 79.42C441 79.74 441 79.99 441.19 80.24C441.38 80.56 441.7 80.75 442.14 80.87C442.7 80.87 443.08 80.62 443.21 80.12L443.27 80.12C443.33 79.8 443.33 79.49 443.21 79.17C443.08 78.92 442.83 78.73 442.52 78.67ZM435.27 44.15C437.35 44.15 439.49 44.27 441.26 45.41C441.95 45.91 442.52 46.6 442.96 47.42C443.33 48.3 443.52 49.44 443.52 50.76C443.52 55.99 440.5 57.56 435.65 57.56L433.7 57.56C433.07 57.56 432.63 57.94 432.63 58.57C432.63 59.14 433.13 59.64 433.7 59.64L435.65 59.64C442.26 59.64 445.6 56.68 445.6 50.76C445.6 46.48 443.9 43.58 439.49 42.44C438.17 42.19 436.78 42.07 435.27 42.07L422.73 42.07C422.17 42.07 421.66 42.57 421.66 43.14L421.66 79.8C421.66 80.5 422.04 80.87 422.73 80.87C423.43 80.87 423.74 80.5 423.74 79.8L423.74 44.15ZM439.11 64.31C446.74 63.3 451.27 58.38 451.27 50.63C451.27 41.37 446.36 37.15 437.29 37.15L428.34 37.15C427.65 37.15 427.33 37.47 427.33 38.16C427.33 38.85 427.65 39.23 428.34 39.23L437.29 39.23C445.16 39.23 449.19 42.57 449.19 50.63C449.19 57.69 444.6 62.29 437.29 62.29C436.85 62.29 436.53 62.48 436.34 62.86C436.15 63.3 436.15 63.61 436.4 63.93L447.62 80.43C447.81 80.75 448.12 80.87 448.5 80.87C448.69 80.87 448.88 80.81 449.07 80.69C449.63 80.31 449.7 79.8 449.32 79.24Z" />
	<path id="MADE IN BHARAT " fill="#08e508" d="M465.32 81.06C465.83 81.06 466.2 80.81 466.39 80.31L466.39 80.24C466.46 79.93 466.46 79.68 466.33 79.36C466.2 79.11 466.01 78.92 465.32 78.73C464.82 78.73 464.44 78.98 464.25 79.55C464.19 79.87 464.19 80.18 464.38 80.43C464.57 80.75 464.88 80.94 465.32 81.06ZM466.46 77.6C466.9 77.6 467.27 77.35 467.46 76.91L476.28 51.08C476.35 50.82 476.35 50.57 476.22 50.26C476.09 50 475.91 49.81 475.28 49.69C474.83 49.69 474.52 49.94 474.27 50.38L465.51 76.21C465.32 76.91 465.64 77.35 466.46 77.6ZM488.63 77.47C488.95 77.41 489.14 77.22 489.26 76.97C489.39 76.72 489.39 76.46 489.32 76.21L487.56 70.73C487.37 70.29 486.99 70.04 486.55 70.04L473.26 70.04C472.57 70.04 472.25 70.35 472.25 71.05C472.25 71.61 472.69 72.12 473.26 72.12L485.8 72.12L487.37 76.84C487.5 77.28 487.81 77.53 488.32 77.53ZM495.37 80.87C496 80.69 496.19 80.24 496 79.55L490.71 65.06C490.52 64.68 490.21 64.49 489.77 64.49L475.02 64.49C474.33 64.49 473.95 64.81 473.95 65.5C473.95 66.07 474.46 66.57 475.02 66.57L489.01 66.57L494.05 80.31C494.24 80.75 494.62 80.94 495.06 80.94ZM459.4 80.94C459.84 80.94 460.22 80.75 460.41 80.31L475.34 40.11L482.33 61.41C482.58 62.04 483.02 62.1 483.65 62.1C483.97 62.04 484.16 61.85 484.28 61.6C484.41 61.34 484.41 61.09 484.35 60.78L476.85 37.91C476.66 37.47 476.28 37.21 475.84 37.21L474.96 37.21C474.52 37.21 474.14 37.47 473.95 37.91L458.45 79.55C458.27 80.24 458.58 80.69 459.4 80.94ZM488.44 62.04C488.76 61.97 488.95 61.78 489.07 61.53C489.2 61.28 489.2 61.03 489.14 60.71L482.77 41.37C482.46 40.74 482.08 40.74 481.45 40.74C480.82 40.93 480.63 41.37 480.82 42.07L487.12 61.41C487.31 61.85 487.69 62.1 488.13 62.1ZM516.92 64.81C516.92 64.12 516.6 63.74 515.91 63.74C515.22 63.74 514.84 64.12 514.84 64.81L514.84 79.99C514.84 80.56 515.34 81 515.91 81C516.6 81 516.92 80.69 516.92 79.99ZM516.86 38.1C516.86 37.4 516.54 37.03 515.85 37.03L503.31 37.03C502.62 37.03 502.24 37.4 502.24 38.1C502.24 38.79 502.62 39.1 503.31 39.1L514.78 39.1L514.78 59.08C514.78 59.64 515.28 60.08 515.85 60.08L520.51 60.08L520.51 75.14C520.51 75.71 521.01 76.21 521.58 76.21C522.27 76.21 522.59 75.83 522.59 75.14L522.59 59.08C522.59 58.45 522.21 58 521.58 58L516.86 58ZM503.31 42.57C502.74 42.57 502.24 43.07 502.24 43.64C502.24 44.33 502.62 44.65 503.31 44.65L511 44.65C511.69 44.65 512.01 44.33 512.01 43.64C512.01 43.01 511.63 42.57 511 42.57ZM521.58 37.03C520.89 37.03 520.51 37.4 520.51 38.1C520.51 38.66 521.01 39.1 521.58 39.1L529.77 39.1C530.46 39.1 530.78 38.79 530.78 38.1C530.78 37.4 530.46 37.03 529.77 37.03ZM520.51 53.47C520.51 54.04 521.01 54.48 521.58 54.48C522.27 54.48 522.59 54.16 522.59 53.47L522.59 44.65L533.24 44.65C533.93 44.65 534.31 44.33 534.31 43.64C534.31 42.95 533.93 42.57 533.24 42.57L521.58 42.57C521.01 42.57 520.51 43.07 520.51 43.64ZM533.3 36.9C532.73 36.9 532.35 37.15 532.23 37.66L532.16 37.72C532.1 38.03 532.1 38.29 532.29 38.54C532.48 38.85 532.8 39.04 533.24 39.23C533.8 39.23 534.18 38.98 534.31 38.41L534.37 38.41C534.43 38.1 534.43 37.84 534.31 37.53C534.18 37.21 533.93 37.03 533.61 36.96Z" />
</svg>